<?xml version="1.0" encoding="UTF-8"?>
<svg id="Layer_1" data-name="Layer 1" xmlns="http://www.w3.org/2000/svg" viewBox="0 0 14.09 9.9">
  <defs>
    <style>
      .cls-1 {
        fill: #684b38;
        opacity: .15;
      }

      .cls-2 {
        fill: #936e51;
      }
    </style>
  </defs>
  <path class="cls-2" d="M6.85,9.88c-2.7-.16-5-1.37-6.12-3-.06-.09-.12-.18-.17-.27C.16,5.94-.04,5.2,0,4.45c.01-.02.03-.04.04-.07.07-.03.15-.06.22-.09.5-.2,1.01-.34,1.54-.4,1.01-.13,2.01.04,2.97.43,1.04.42,2.05.97,3.09,1.38,1.5.58,3.59.9,5.21.21.33-.14.63-.32.91-.55.06.04.03.02.09.06-.03.66-.25,1.27-.62,1.82-.22.33-.5.64-.82.93-.56.49-1.26.9-2.06,1.19-1.1.4-2.38.6-3.75.52Z"/>
  <path class="cls-2" d="M1.99,3.07c1.05-.08,2.08.12,3.08.52,1.04.42,2.04.97,3.09,1.38,1.71.66,4.17.88,5.71-.47.08-.07.11-.2.08-.31C13.28,1.99,10.57.22,7.25.02,4.2-.17,1.55,1.03.49,2.87c-.12.21.04.49.24.43.41-.12.83-.2,1.25-.23Z"/>
  <path class="cls-1" d="M6.85,9.88c-2.7-.16-5-1.37-6.12-3,1.42.68,3.39,1.37,5.78,1.53,2.97.19,5.39-.52,6.96-1.17-.22.33-.5.64-.82.93-.56.49-1.26.9-2.06,1.19-1.1.4-2.38.6-3.75.52Z"/>
</svg>