<?xml version="1.0" encoding="UTF-8"?>
<svg id="Layer_1" data-name="Layer 1" xmlns="http://www.w3.org/2000/svg" viewBox="0 0 15.23 13.66">
  <defs>
    <style>
      .cls-1 {
        fill: #936e51;
      }
    </style>
  </defs>
  <path class="cls-1" d="M15.17,4.95s0-.03,0-.04c0-.04-.01-.07-.02-.11,0-.02,0-.05-.01-.07-.02-.08-.03-.15-.06-.23,0-.01,0-.02,0-.03C14.35,1.9,11.23,0,7.59,0c-.05,0-.1,0-.15,0-.13,0-.26,0-.39.01-.07,0-.15,0-.22.01-.16.01-.31.03-.47.05-.08,0-.15.02-.23.03-.15.02-.3.05-.45.07-.08.01-.15.03-.23.05-.1.02-.21.05-.31.07-.12.03-.23.06-.35.1-.08.02-.17.05-.25.08-.15.05-.3.1-.45.16-.05.02-.1.04-.14.06-1.49.6-2.68,1.56-3.36,2.73,0,0,0,.02-.01.02-.07.12-.13.24-.19.36-.03.05-.05.11-.07.16-.03.07-.05.13-.08.2-.04.11-.08.22-.11.34,0,.02-.01.03-.02.05,0,.02,0,.04,0,.06-.08.33-.12.66-.12,1.01v2.53c0,3.09,3.34,5.5,7.59,5.5,4.21,0,7.64-2.52,7.64-5.61v-2.42c0-.23-.02-.45-.06-.67ZM14.37,5.65c-.38.23-.54,1-.72,2.06-.05.27-.09.53-.13.69-.02.09-.07.17-.1.2-.5-.14-.91-.11-1.22.09-.48.31-.56.93-.61,1.27,0,.02-.01.04-.03.05-.01,0-.03.01-.06,0-.03-.02-.08-.09-.13-.15-.19-.25-.5-.67-1.17-.6-.55.06-.84.65-1.09,1.18-.09.19-.18.36-.26.48-.1.14-.29.19-.47.13-.01-.02-.03-.07-.04-.1-.07-.2-.22-.63-.81-.64-.46,0-.67.36-.79.59-.03.06-.08.15-.1.16-.15.07-.31.03-.4-.1-.05-.08-.05-.31-.05-.49,0-.35,0-.78-.3-1.04-.16-.13-.36-.2-.63-.2-.1,0-.21,0-.33.03-.34.05-.62.31-.85.51-.08.07-.19.17-.23.19-.03.01-.05.01-.07,0-.01,0-.05-.03-.05-.08-.01-.11-.04-.21-.08-.34-.19-.71-.97-.75-1.44-.77-.13,0-.26-.01-.33-.03-.16-.04-.29-.17-.33-.35-.02-.1-.04-.39-.05-.67-.05-1.03-.1-1.72-.43-1.94-.35-.24-.53-.65-.44-1.04,0-.03.01-.05.02-.08.03-.12.07-.23.11-.35.02-.04.03-.08.05-.13.04-.1.09-.2.14-.3.03-.06.06-.11.09-.17.03-.05.06-.1.09-.15.07-.11.14-.21.22-.32.02-.02.03-.04.05-.06.65-.85,1.63-1.56,2.82-2.02.03-.01.07-.02.1-.04.15-.06.3-.11.46-.16.07-.02.13-.04.2-.06.12-.03.24-.07.36-.1.09-.02.17-.04.26-.06.08-.02.15-.03.23-.05.13-.02.27-.05.41-.07.08-.01.15-.02.23-.03.14-.02.28-.03.43-.04.07,0,.15,0,.22-.01.11,0,.23,0,.34-.01.05,0,.1,0,.15,0,3.3,0,6.09,1.62,6.88,3.81,0,.02.01.03.02.05.02.06.04.12.06.19,0,.03.01.05.02.08.01.05.03.1.04.16,0,.03.01.07.02.1,0,.04.01.07.02.11.04.25-.07.5-.28.63ZM7.59,13.13c-3.96,0-7.06-2.19-7.06-4.98,0,0,0-1.47,0-2.17.08.08.16.15.25.22.14.15.19,1.12.2,1.53.02.34.03.62.06.77.09.37.37.66.72.74.12.03.26.03.42.04.49.02.87.06.96.41.02.09.05.17.06.25.03.2.15.38.32.47.17.09.37.1.55.02.11-.05.23-.15.36-.27.18-.16.4-.36.59-.39.26-.04.45-.02.54.05.12.1.12.39.12.64,0,.28,0,.57.14.79.16.24.42.37.68.37.13,0,.26-.03.39-.09.16-.08.24-.24.32-.39.13-.24.19-.32.32-.31.23,0,.26.09.32.28.05.14.11.31.29.39.41.19.89.06,1.14-.29.11-.15.2-.35.3-.55.19-.38.42-.86.68-.89.37-.04.53.17.7.39.09.12.17.23.3.3.17.09.38.09.55,0,.17-.09.28-.25.31-.44.04-.27.1-.72.37-.9.18-.12.46-.12.82-.01.12.04.24.02.36-.04.24-.14.34-.45.36-.54.05-.19.09-.44.14-.74.09-.51.27-1.57.48-1.7.02-.01.04-.03.06-.04v1.99c0,2.81-3.19,5.09-7.11,5.09Z"/>
  <path class="cls-1" d="M7.48,3.55c-1.62,0-2.89.81-2.89,1.84,0,.18.05.37.13.55,0,0,0,.02,0,.02.38.76,1.48,1.27,2.75,1.27s2.37-.51,2.75-1.27c0,0,0-.01,0-.02.09-.18.13-.36.13-.55,0-1.03-1.27-1.84-2.89-1.84ZM7.48,4.07c1.28,0,2.36.6,2.36,1.31,0,.03,0,.07,0,.1,0,0,0,0,0,0-.16-.06-.33-.12-.5-.16-.03,0-.05-.01-.08-.02-.16-.04-.33-.08-.51-.11-.03,0-.06-.01-.09-.02-.17-.03-.35-.05-.53-.07-.03,0-.05,0-.08,0-.19-.01-.38-.02-.57-.02s-.38,0-.57.02c-.03,0-.05,0-.08,0-.18.02-.36.04-.53.07-.03,0-.06.01-.09.02-.17.03-.34.07-.51.11-.03,0-.05.01-.08.02-.17.05-.34.1-.5.16,0,0,0,0,0,0,0-.03,0-.07,0-.1,0-.71,1.08-1.31,2.36-1.31ZM5.37,5.96s.02,0,.03,0c.14-.05.28-.09.42-.13.02,0,.04-.01.07-.02.15-.04.3-.07.45-.1.03,0,.06-.01.09-.02.15-.03.31-.05.47-.06.03,0,.05,0,.08,0,.17-.01.34-.02.51-.02s.34,0,.51.02c.03,0,.05,0,.08,0,.16.01.32.03.47.06.03,0,.06.01.09.02.15.03.3.06.45.1.02,0,.04.01.07.02.14.04.28.08.42.13,0,0,.02,0,.03,0-.4.45-1.21.74-2.12.74s-1.72-.29-2.12-.74Z"/>
</svg>