<?xml version="1.0" encoding="UTF-8"?>
<svg id="Layer_1" data-name="Layer 1" xmlns="http://www.w3.org/2000/svg" viewBox="0 0 163.7 160">
  <defs>
    <style>
      .cls-1 {
        fill: #90d9e6;
      }

      .cls-2 {
        opacity: .6;
      }

      .cls-2, .cls-3 {
        isolation: isolate;
      }

      .cls-2, .cls-4 {
        fill: #dfad7d;
      }

      .cls-5 {
        fill: #fff;
      }

      .cls-3 {
        fill: #ffcde6;
        opacity: .8;
      }

      .cls-6 {
        fill: #ffa5c7;
      }

      .cls-7 {
        fill: #f381ad;
      }

      .cls-8 {
        fill: #f3d454;
      }

      .cls-9 {
        fill: #c0946f;
      }

      .cls-10 {
        fill: #ff7987;
      }
    </style>
  </defs>
  <g id="Layer_1-2" data-name="Layer 1">
    <path class="cls-7" d="M68.37,55.77c.22.11.33.11.55.22v-.66c-.22.11-.44.22-.66.44h.11ZM117.48,50.71c-2.42-1.43-5.4-2.64-6.61-5.17-.99-1.98-.55-4.4.11-6.5.77-2.09,1.87-4.07,2.31-6.28.11-.66.22-1.32.22-1.87,0-.22,0-.44-.22-.55-9.36-9.36-22.79-14.09-36.66-11.67-8.59,1.54-16.41,5.95-22.57,12.11.22.33.55.55.99.55h.99s0,.22.11.22c0,0,0,.11.11.22.22.33.33.66.66.77h.22c.11,0,.33.11.44.11h.22l.33.22c0,.22,0,.44.22.55l.22.11c.33.11.66.44.99.66,0,0,.11,0,.22.11h0c.22,0,.44.22.66.44l.11.22c.22.44.55.77.77,1.21,0,0,0,.11.11.22.22.44,0,.88,0,1.32s.77.44.77,1.1v.99c0,.55-.44.66-.44.99v.33c0,.44.66.55.66.99v1.1c-.33.77-.66,1.43-.99,2.2v.22c-.11.44,0,.88-.11,1.43v.22c-.11.33-.33.55-.55.77,0,0,0,.11-.11.22-.77.22-1.1.99-1.54,1.54h0s-.11,0-.22.11c-.33.22-.66.55-.99.77,0,0-.11,0-.22.11-.55.77-1.43.88-2.31,1.1-.44.11-.88.33-1.43.11h-.33c-.11,0-.22,0-.33.22,0,0-.11.11-.22.22v.22h0c.33,0,.66.22.99.44.33.22.55.55.99.66s.77.22,1.21.44c0,0,.11,0,.22.11.22.11.44.33.66.44,0,0,.11.11.22.22.44.66.77,1.21,1.54,1.65,0,0,.11.11.22.22.33.55.77,1.1.99,1.65,0,0,0,.22.11.22-.22.77.11,1.54.66,2.09v.99c.33.88.33,1.54,0,2.31v.22c0,.22,0,.44-.11.77v.22c-.77.66-.55,1.76-.99,2.53,0,0,0,.11-.11.22-.11.22-.33.44-.44.66,0,0,0,.11-.11.22,0,0-.55.22-.66.22-.22,0-.33.22-.55.44-.33.44-.22.88-.55,1.32-.66.55-1.21.55-1.76.88-.33.22-.22.66,0,.88.11,0,.33.11.55.22.33,0,.66.11.99.11h1.32c.77.22,1.32.88,2.2.99,0,0,.11,0,.22.11.44.33.88.55,1.32.88,0,0,.22.11.22.22v.22c.33.66.77,1.1,1.43,1.43,0,0,.11.11.11.22.11.22.33.44.44.66.33.66.66,1.21.88,1.87v.22c-.22.77-.11,1.32.22,1.98v.11h0s0,.11.11.22v2.75c-.11.44-.44.88-.55,1.21-.11.33-.11.66,0,1.1v.22c-.22.66-.44,1.43-.77,2.09,0,0,0,.22-.11.22-.22.11-.33.33-.55.44-.44.44-.77.99-.88,1.87,0,0,0,.11-.11.22-.22.33-.55.66-.77.99.88.44,1.76,1.1,2.64,1.76,1.65,1.21,3.63,2.2,5.73,1.98,2.97-.44,5.51-3.52,8.48-2.97,2.53.55,3.85,3.52,6.39,4.4,1.76.55,3.52,0,5.28-.66,3.96-1.54,8.04-2.97,12-4.51,2.2-.77,4.62-1.87,5.51-4.07.66-1.87,0-4.07.88-5.84,1.87-3.85,9.03-2.75,10.24-6.83,1.21-4.29-5.95-7.38-5.06-11.67.77-3.63,6.28-4.29,7.38-7.71.77-2.75-1.65-5.28-4.07-6.72l.22.22ZM92.05,73.06c-1.1.33-2.31.66-3.63.88-5.73.99-10.57.22-13.98-2.42-.99-.77-1.87-1.54-2.64-2.64-1.32-1.87-2.31-4.07-2.86-6.83,0-.33-.11-.77-.22-1.1,0-.88-.11-1.65-.11-2.53s0-1.76.22-2.64v-.66c.22-1.1.55-2.2.99-3.3.33-.99.88-1.87,1.43-2.64.22-.33.44-.66.66-.88h0c.44-.66.99-1.1,1.76-1.32,2.31-.77,4.07-1.98,5.95-3.74.44-.44.99-.66,1.54-.88.22,0,.44-.11.66-.11s.44,0,.66-.11c.22,0,.44,0,.66-.11.55,0,1.1,0,1.43.22.99.77,1.98,1.43,2.97,1.76,1.43.55,2.97.55,4.62-.22.44-.22.88-.22,1.32,0h0c.33,0,.66.33.99.44.33.22.66.44.99.66h0c1.87,1.21.99,3.52,1.76,5.4,0,.11.11.33.22.44.66,1.1,2.2,1.43,3.3,2.09.66.44.99,1.1,1.21,1.87,0,.44.22.88.22,1.21,0,.44.11.88.22,1.32.44,3.96-.44,7.38-2.53,10.13-1.87,2.42-4.62,4.29-8.15,5.51l.33.22ZM68.37,55.77c.22.11.33.11.55.22v-.66c-.22.11-.44.22-.66.44h.11Z"/>
    <path class="cls-6" d="M41.62,51.15c-.22.11,0,.44.11.66,0-.33.11-.66.22-.88-.11,0-.22.11-.33.22ZM113.63,52.91c-.11-.88.88-.55,1.43-.55h0c-.22-.22-.77-.55-1.32-.88-.22-.11-.55-.33-.88-.44-1.76-.99-3.52-1.98-5.17-3.08-.33-.22-.44-.66,0-.99.77-.66,2.09-.77,2.53-1.76.22-.44-.55-.66-.99-.77-2.53-.77-5.06-1.1-7.6-1.76-.33,0-.77-.22-1.1-.33-.22,0-.55-.22-.88-.33s-.66-.33-.88-.55c-.22-.22-.44-.55-.55-.88,0-.33,0-.77.33-.77.66,0,1.21,0,1.87.11,1.87.33,3.52.99,5.28,1.54.22,0,.55.22.77.22.33.11.66,0,1.43.22v-.99c0-.33.22-.66.33-.99.66-1.54,1.32-3.08,1.65-4.73.11-.55.22-1.1.22-1.76,0-.22,0-.44-.22-.55-4.18-4.18-9.25-7.38-14.86-9.14-.44-.11-.77-.22-1.21-.33-3.19-.55-6.28,1.21-9.36,1.65-1.1.22-1.65-.66-1.87-1.65-.22-1.87-2.64-1.21-4.07-1.1-.44,0-.77.11-1.21.22-3.52.55-7.05,1.1-10.24,2.75-.88.44-1.65.44-2.53.33,0,0-.22,0-.33.11.22.44.55.77.88,1.1.22.22.33.44.55.66l.66.66c1.54,1.43.99,3.85,0,5.17-1.21,1.54-3.52.99-4.62-.77-.33-.55-1.1-.66-1.76-.33-.22.22-.33.44-.33.77.11.44.22.88.22,1.32.22,0,.44.22.66.44l.11.22c.22.44.55.77.77,1.21,0,0,0,.11.11.22.22.44,0,.88,0,1.32s.77.44.77,1.1v.99c0,.55-.44.66-.44.99v.33c0,.44.66.55.66.99v1.1c-.33.77-.66,1.43-.99,2.2v.22c-.11.44,0,.88-.11,1.43v.22c-.11.33-.33.55-.55.77,0,0,0,.11-.11.22-.77.22-1.1.99-1.54,1.54h0s-.11,0-.22.11c-.33.22-.66.55-.99.77,0,0-.11,0-.22.11-.55.77-1.43.88-2.31,1.1-.44.11-.88.33-1.43.11h-.33c-.11,0-.22,0-.33.22,0,0-.11.11-.22.22v.22h0c.33,0,.66.22.99.44.33.22.55.55.99.66s.77.22,1.21.44c0,0,.11,0,.22.11.22.11.44.33.66.44,0,0,.11.11.22.22.44.66.77,1.21,1.54,1.65,0,0,.11.11.22.22.33.55.77,1.1.99,1.65,0,0,0,.22.11.22-.22.77.11,1.54.66,2.09v.99c.33.88.33,1.54,0,2.31v.22c0,.22,0,.44-.11.77v.22c-.77.66-.55,1.76-.99,2.53,0,0,0,.11-.11.22-.11.22-.33.44-.44.66,0,0,0,.11-.11.22,0,0-.55.22-.66.22-.22,0-.33.22-.55.44-.33.44-.22.88-.55,1.32-.66.55-1.21.55-1.76.88-.33.22-.22.66,0,.88.11,0,.33.11.55.22.33,0,.66.11.99.11h1.32c.77.22,1.32.88,2.2.99,0,0,.11,0,.22.11.44.33.88.55,1.32.88,0,0,.22.11.22.22v.22c.33.66.77,1.1,1.43,1.43,0,0,.11.11.11.22.11.22.33.44.44.66.33.66.66,1.21.88,1.87v.22c-.22.77-.11,1.32.22,1.98v.11h0s0,.11.11.22v2.75c-.11.44-.44.88-.55,1.21-.11.33-.11.66,0,1.1v.22c-.22.66-.44,1.43-.77,2.09,0,0,0,.22-.11.22-.22.11-.33.33-.55.44h.44s0-.22-.11-.22c1.1.55,1.98,1.43,3.08,2.2.33.22.55.44.88.66,1.21.88,2.42,1.54,3.96,1.65.66,0,1.21-.55,1.54-1.1.22-.22.33-.55.44-.77.55-1.43,2.09-2.31,3.63-2.31,1.43.11,2.86.44,3.96,1.43l.66.66.66.66c.33.22.55.55.88.77.44.33.99.44,1.54.22.44-.22.88-.55.99-1.21,0-2.2-1.32-3.85-2.2-5.95-.22-.55.22-.99.77-.77,2.42,1.1,4.62,2.64,6.39,4.51-.11-.55-.33-1.43.44-1.54,3.08-.44,5.84-.11,9.03,0,.99,0,1.76-.33,2.53-.77.22-.11.44-.33.66-.44.55-.44,1.1-1.1,1.32-1.87,0-.33.22-.55.22-.88,0-2.31,1.21-3.96,3.08-5.06.22-.11.55-.33.88-.44.33-.22.22-.88.22-1.21,0-.99-.44-1.65-.77-2.53-.11-.44.22-.77.66-.88,1.76-.77,5.84-.88,5.06-3.52-.22-.33-.44-.66-.66-.99-1.54-1.98-3.74-3.96-3.19-6.28.44-1.98,2.53-2.97,4.29-4.18.33-.22.66-.55.77-.99,0-2.31-1.76-4.07-2.09-6.39v.22ZM105.37,61.5c-.44.88-1.98.77-2.53,1.76.11.66.11,1.32,0,1.98-.22.66-.66,1.21-1.1,1.65-.22.22-.55.44-.88.55-.11,0-.33.11-.55.22-.77.22-1.65.22-2.42.22-.66,0-1.21,0-1.87.11-.22,0-.55.22-.66.33-1.98,1.1-4.62,1.54-5.51,3.63-.22.55,1.32.66,2.2.99h.22c.33.22.55.44.55.77,0,.11,0,.33.11.44.22.33.22.77-.22.99-1.1.55-2.09,1.1-3.3,1.1h-1.1c-1.43,0-2.97-.11-4.4,0h-.99c-.33,0-.66,0-.99-.11-.77-.11-1.54-.22-2.42-.22h-1.32c-.99-.11-2.09-.11-3.08-.33-.33,0-.66-.11-.99-.22-.55-.22-1.21-.55-1.65-.99,0,.11.22.33,0,.44s-.66,0-.77-.33v-.22.66c-.22,0-.44-.22-.44-.44.11-.55.66-.88,1.1-1.1-.33.33-.55.55-.77.88h0c0-.11.11-.22.22-.33.88-.77,1.76-1.54,2.53-2.31.44-.55.88-1.1,1.21-1.76.22-.44-.44-.77-.88-.77h-2.97c-1.87,0-3.63,0-5.51-.22.22-1.21-1.32-1.65-2.09-2.42-.33-.33-.22-.77.22-.88,1.32-.33,2.42.22,3.74.11.44,0,.88-.44.77-.88-.33-.55-.99-.88-1.21-1.43v-.88c0-.33.33-.55.55-.88.11-.11.33-.22.44-.33,0,0,.11,0,.22-.11.33-.22.66-.44,1.1-.66.33-.22.66-.44.44-.77-.22-.33-.55-.55-.88-.66-.33,0-.55-.22-.88-.22-2.31-.44-5.4-.11-6.5-2.2,2.2-.99,5.84-.22,6.94-2.75.22-.55.22-1.54.77-1.54h0c.55,0,1.21.88.99,1.65-.22.88-1.21,1.21-2.09,1.65-.22.11-.44.22-.66.44.22.11.33.11.55.22h.66c-.11,0-.44-.11-.44-.22.55-.77,1.65-.77,2.31-1.32.66-.66,1.32-1.1,2.2-1.43.99-.44,1.21-1.54,1.87-2.31v-.88c0-.88,0-1.87.99-2.31.22-.22.55-.33.88-.55.22-.11.44-.22.55-.44.22-.11.33-.33.44-.55.66-.77,1.43-1.54,2.31-1.98,1.54-.77,3.19,0,4.4.99.55.55,1.1.44,1.65,0l.77-.77h0c1.54-1.87,4.29-3.63,6.5-3.08.77.22.77,1.76,1.76,2.31.22.22.55.33.88.55.55.33,1.21.55,1.87.66.33,0,.77.11,1.1.22,1.1.22,2.2.55,3.08,1.32.33.33-.11.66-.44.88-1.32.99-2.97,1.43-4.07,2.64-.22.22-.33.55-.55.77,0,.22-.11.33-.22.55-.33,1.43,1.32,2.53,2.53,3.08.11,0,.22.22.22.44,0,.44.11.88.55,1.43.22.33.55.55.77.88s.55.55.88.88c1.43,1.21,3.52,2.42,2.64,3.96l.66-.55Z"/>
    <path class="cls-9" d="M69.48,98.49c1.98,0,3.74-.88,5.62-1.43s3.96-.88,5.73-.11c1.98.88,3.19,3.63,1.87,5.4-.77.88-1.98,1.32-3.19,1.32s-2.31-.44-3.41-.77c-2.53-.88-5.06-1.76-7.6-2.64-1.87-.66-3.74-1.32-5.51-2.31-1.21-.77-3.41-2.2-3.08-3.74,2.97,2.09,5.62,4.62,9.47,4.4l.11-.11Z"/>
    <path class="cls-4" d="M82.25,44.65c1.1.11,2.2.66,3.3.88,1.87.33,3.63-.33,5.51-.66,1.43-.22,3.08-.22,4.18.77.77.66,1.1,1.76,1.32,2.75s.22,2.09.55,2.97c.66,1.87,2.2,3.3,3.41,4.95.99,1.43,1.76,3.19,1.87,4.95s-.55,3.63-1.87,4.84c-.33.33-.77.55-1.21.55s-.99-.11-1.1-.55c-.22-.44,0-.99.22-1.43.88-2.09.88-4.4.33-6.61s-1.65-4.18-2.86-6.17c-.88-1.43-1.87-2.86-3.3-3.85s-3.19-1.54-4.95-1.65-3.52-.11-5.28-.11c-.99,0-2.09,0-2.97-.22,0-1.1,1.87-1.54,2.75-1.32l.11-.11Z"/>
    <path class="cls-9" d="M111.64,39.81c-.33,1.87-.22,3.96.88,5.62,1.21,1.76,3.3,2.64,5.17,3.85,2.31,1.43,4.29,3.52,4.84,6.17s-.33,5.73-2.64,7.05c-1.21.66-2.75.99-3.41,2.09-.66,1.21,0,2.75.66,3.96.77,1.32,1.43,2.75,2.2,4.07s2.75,1.1,3.08-.33c3.19-11.67,1.21-24.77-5.4-34.9-.55-.88-2.09-3.41-3.3-2.64s-1.87,3.96-2.09,5.06Z"/>
    <path class="cls-2" d="M117.81,80.11c-.55,0-1.1.11-1.65.33-2.2.66-4.62,1.54-5.84,3.52-1.21,2.09-.77,4.73-1.87,6.83-1.21,2.42-4.07,3.52-6.72,4.4-4.18,1.43-8.48,2.75-12.66,4.18-1.1.33-2.31.99-2.31,2.09,0,.77.66,1.43,1.43,1.65s1.54,0,2.31-.11c5.06-1.1,9.91-3.19,14.2-5.95,4.4-2.86,8.26-6.39,11.45-10.57.88-1.1,5.28-6.06,1.65-6.28v-.11Z"/>
    <path class="cls-3" d="M76.52,44.87c0,.22-.22.33-.33.55-.66.44-1.43.55-2.09.55h-.77c-1.98.22-3.96-.11-6.06-.33-.88,0-2.42-.22-2.42.77,0,1.76,1.76,3.85,0,5.28-.22.22-.55.33-.88.44-.66.22-1.32.33-1.98.44-.99.11-2.09,0-2.53-1.1-.22-.66-.33-1.32-.55-1.87.44-.66.66-1.32,1.54-1.54,0,0,0-.11.11-.22.22-.22.33-.55.55-.77v-.22c0-.55,0-.99.11-1.43v-.22c.22-.66.66-1.43.99-2.2v-1.1c0-.44-.55-.66-.66-.99,1.98.55,4.18.11,5.73-1.43.22-.22.44-.55.66-.88.22-.33.33-.66.44-.99.22-.44,0-1.1.44-1.32,1.65-.66,4.84-1.32,4.95.66.22,2.42.99,4.18,2.31,6.17.33.44.33,1.1,0,1.65l.44.11Z"/>
    <path class="cls-3" d="M79.49,86.16c-.99.44-2.09.44-3.19.11-.33,0-.77-.22-1.1-.33-.33,0-.55-.22-.88-.44-.99-1.21-2.31-1.32-3.08.11-.11.22-.33.44-.44.66-.44.66-.88,1.32-1.54,1.65-.33.22-.77.22-1.32,0-.33,0-.66-.22-.99-.33-.22-.11-.44-.33-.66-.44-.33-.22-.55-.44-.77-.77.11-.44.44-.77.55-1.21v-2.75s0-.11-.11-.22h0v-.11c-.33-.55-.44-1.21-.22-1.98v-.22c-.22-.66-.55-1.32-.88-1.87-.11-.22-.33-.44-.44-.66,0,0,0-.11-.11-.22-.66-.33-1.1-.77-1.43-1.43.44-.33.88-.44,1.43-.55.33,0,.66-.11.99-.22h2.42c.22,0,.55,0,.88.11,1.1.11,2.09.44,3.08,1.1.22.22.55.22.88.33,2.42.44,6.17-1.1,7.05,1.43.44,1.1-1.76,1.65-2.64,2.75-.66.88-.66,2.42.33,2.97.55.33,1.21.66,1.65.99.44.44.88.88.99,1.65l-.44-.11Z"/>
    <rect x="71.6" y="30.43" width="2.86" height=".88" rx=".3" ry=".3" transform="translate(-5.62 40.93) rotate(-30.2)"/>
    <rect x="110.93" y="69.09" width="2.86" height=".88" rx=".3" ry=".3" transform="translate(-19.73 65.96) rotate(-30.2)"/>
    <rect x="81.01" y="81.29" width="2.86" height=".88" rx=".3" ry=".3" transform="translate(-29.92 52.56) rotate(-30.2)"/>
    <rect x="66.49" y="82.55" width="2.86" height=".88" rx=".3" ry=".3" transform="translate(-32.53 45.43) rotate(-30.2)"/>
    <rect x="81.41" y="36.21" width=".88" height="2.86" rx=".3" ry=".3" transform="translate(24.55 107.16) rotate(-75.2)"/>
    <rect x="61.79" y="67.95" width=".88" height="2.86" rx=".3" ry=".3" transform="translate(-20.75 111.82) rotate(-75.2)"/>
    <rect x="102.95" y="52.46" width=".88" height="2.86" rx=".3" ry=".3" transform="translate(24.87 140.08) rotate(-75.2)"/>
    <rect x="94.71" y="89.37" width=".88" height="2.86" rx=".3" ry=".3" transform="translate(-16.94 159.6) rotate(-75.2)"/>
    <rect x="99.34" y="32.18" width=".88" height="2.86" rx=".3" ry=".3" transform="translate(-2.33 7.93) rotate(-4.5)"/>
    <rect x="88.25" y="29.07" width=".88" height="2.86" rx=".3" ry=".3" transform="translate(-4.73 38.87) rotate(-24.1)"/>
    <rect x="106.76" y="40.73" width="2.86" height=".88" rx=".3" ry=".3" transform="translate(2.74 88.93) rotate(-45.2)"/>
    <rect x="93.09" y="79.98" width=".88" height="2.86" rx=".3" ry=".3" transform="translate(-23.45 122.53) rotate(-60.4)"/>
    <rect x="68.56" y="42.16" width="2.86" height=".88" rx=".3" ry=".3" transform="translate(-9.56 62.25) rotate(-45.2)"/>
    <rect x="102.33" y="84.42" width="2.86" height=".88" rx=".3" ry=".3" transform="translate(-29.57 98.69) rotate(-45.2)"/>
    <rect x="101.4" y="70.99" width=".88" height="2.86" rx=".3" ry=".3" transform="translate(-5.37 8.21) rotate(-4.5)"/>
    <rect x="111.71" y="55.47" width=".88" height="2.86" rx=".3" ry=".3" transform="translate(-4.12 8.97) rotate(-4.5)"/>
    <path class="cls-8" d="M72.24,30.82l1.71-1c.21-.12.48-.05.6.16h0c.12.21.05.48-.16.6l-1.71,1c-.21.12-.48.05-.6-.16h0c-.12-.21-.05-.48.16-.6Z"/>
    <path class="cls-8" d="M111.47,69.5l1.71-1c.21-.12.48-.05.6.16h0c.12.21.05.48-.16.6l-1.71,1c-.21.12-.48.05-.6-.16h0c-.12-.21-.05-.48.16-.6Z"/>
    <path class="cls-10" d="M81.49,81.69l1.71-1c.21-.12.48-.05.6.16h0c.12.21.05.48-.16.6l-1.71,1c-.21.12-.48.05-.6-.16h0c-.12-.21-.05-.48.16-.6Z"/>
    <path class="cls-1" d="M67.1,82.95l1.71-1c.21-.12.48-.05.6.16h0c.12.21.05.48-.16.6l-1.71,1c-.21.12-.48.05-.6-.16h0c-.12-.21-.05-.48.16-.6Z"/>
    <path class="cls-10" d="M80.55,37.19h0c.06-.24.3-.38.54-.31l1.92.51c.24.06.38.3.31.54h0c-.06.24-.3.38-.54.31l-1.92-.51c-.24-.06-.38-.3-.31-.54Z"/>
    <path class="cls-8" d="M61.09,68.75h0c.06-.24.3-.38.54-.31l1.92.51c.24.06.38.3.31.54h0c-.06.24-.3.38-.54.31l-1.92-.51c-.24-.06-.38-.3-.31-.54Z"/>
    <path class="cls-8" d="M102.28,53.3h0c.06-.24.3-.38.54-.31l1.92.51c.24.06.38.3.31.54h0c-.06.24-.3.38-.54.31l-1.92-.51c-.24-.06-.38-.3-.31-.54Z"/>
    <path class="cls-1" d="M94,90.17h0c.06-.24.3-.38.54-.31l1.92.51c.24.06.38.3.31.54h0c-.06.24-.3.38-.54.31l-1.92-.51c-.24-.06-.38-.3-.31-.54Z"/>
    <path class="cls-8" d="M99.88,32.05h0c.24-.02.45.16.47.4l.16,1.98c.02.24-.16.45-.4.47h0c-.24.02-.45-.16-.47-.4l-.16-1.98c-.02-.24.16-.45.4-.47Z"/>
    <path class="cls-1" d="M88.37,29.12h0c.22-.1.48,0,.58.22l.81,1.81c.1.22,0,.48-.22.58h0c-.22.1-.48,0-.58-.22l-.81-1.81c-.1-.22,0-.48.22-.58Z"/>
    <path class="cls-1" d="M107.39,41.28l1.4-1.41c.17-.17.45-.17.62,0h0c.17.17.17.45,0,.62l-1.4,1.41c-.17.17-.45.17-.62,0h0c-.17-.17-.17-.45,0-.62Z"/>
    <path class="cls-8" d="M92.43,80.44h0c.12-.21.39-.29.6-.17l1.72.98c.21.12.29.39.17.6h0c-.12.21-.39.29-.6.17l-1.72-.98c-.21-.12-.29-.39-.17-.6Z"/>
    <path class="cls-1" d="M69.24,42.83l1.4-1.41c.17-.17.45-.17.62,0h0c.17.17.17.45,0,.62l-1.4,1.41c-.17.17-.45.17-.62,0h0c-.17-.17-.17-.45,0-.62Z"/>
    <path class="cls-10" d="M103.02,85.08l1.4-1.41c.17-.17.45-.17.62,0h0c.17.17.17.45,0,.62l-1.4,1.41c-.17.17-.45.17-.62,0h0c-.17-.17-.17-.45,0-.62Z"/>
    <path class="cls-1" d="M101.94,70.97h0c.24-.02.45.16.47.4l.16,1.98c.02.24-.16.45-.4.47h0c-.24.02-.45-.16-.47-.4l-.16-1.98c-.02-.24.16-.45.4-.47Z"/>
    <path class="cls-10" d="M112.25,55.46h0c.24-.02.45.16.47.4l.16,1.98c.02.24-.16.45-.4.47h0c-.24.02-.45-.16-.47-.4l-.16-1.98c-.02-.24.16-.45.4-.47Z"/>
    <path class="cls-5" d="M71.79,55.55c0,.33-.22.66-.22.88-.22-.22-.33-.55-.11-.66.11,0,.22-.22.33-.22Z"/>
    <path class="cls-9" d="M54.5,64.58c0-.33,0-.66.22-.77s.44-.11.66-.11h.44c.22,0,.44.33.44.55,0,.11-.11.22-.22.33-.22.22-.33.44-.55.55-.33.33-.99-.33-1.1-.66l.11.11Z"/>
    <path class="cls-9" d="M50.76,62.93c0-.33.22-.66.44-.88s.44-.44.77-.66c.22-.22.55-.33.77-.33.33,0,.55.33.55.66s0,.66-.22.99c-.22.55-.55.99-1.1.99s-1.21,0-1.21-.88v.11Z"/>
    <path class="cls-9" d="M54.39,62.38c0-.11,0-.22.11-.33s.22-.11.22-.22c0,0,.22-.11.22,0,0,0,.22.11.22.22v.33c0,.22-.22.33-.44.33s-.44,0-.44-.33h.11Z"/>
  </g>
  <path class="cls-2" d="M29.74,124.1c.77-3.47.77-7.83,0-11.3h5.32c6.88.01,6.79,11.31-.09,11.3h-5.23ZM37.49,118.49c.38-3.24-.48-4.95-1.59-5.21-1.84-.43-3.15,1.98-3.15,4.88v3.55c0,3.78,4.15,1.8,4.74-3.22Z"/>
  <path class="cls-2" d="M45.89,112.54c3.26,0,5.52,2.64,5.52,5.9s-2.26,5.9-5.52,5.9-5.52-2.64-5.52-5.9,2.26-5.9,5.52-5.9ZM43.49,118.26c-.52,2.77-.3,5.61,1.13,5.61,1.78,0,3.07-2.53,3.54-5.14,1.27-6.88-3.25-8.12-4.67-.47Z"/>
  <path class="cls-2" d="M51.6,112.8h3.59c.58,2.22,4.79,6.4,5.79,7.15.04-.62.05-1.27.04-1.9-.03-1.82-.77-3.86-1.64-5.24h2.6c-.77,3.47-.77,7.83,0,11.3h-2.41c-.36-1.32-4.05-5.76-6.82-9.04-.14,1.17-.2,2.39-.19,3.61.01,1.89.79,3.97,1.64,5.43h-2.6c.77-3.47.77-7.83,0-11.3Z"/>
  <path class="cls-2" d="M67.95,124.35c-2.16,0-4.39-1.66-4.39-4.67,0-3.4-.17-5.04-.57-6.88h3.59c-.38,1.74-.57,3.29-.57,6.84,0,4.33,3.53,5.04,4.85,2.98.52-.8.75-1.92.75-2.98,0-4.32-.69-5.93-1.83-6.84h3.3c-.63.89-1.1,1.93-1.1,6.84,0,2.48-.98,4.71-4.02,4.71Z"/>
  <path class="cls-2" d="M77.09,113.18c-1.85,0-2.49,2.2-2.91,4.04-.09-1.83-.23-2.95-.55-4.42h10.3c-.33,1.47-.47,2.6-.56,4.44-.42-1.85-1-4.06-2.91-4.06-.28,1.38-.44,2.89-.48,4.88-.03,2.07.17,4.15.58,6.04h-3.59c.42-1.85.63-3.95.61-6.04-.05-1.98-.22-3.49-.5-4.88Z"/>
  <path class="cls-6" d="M94.28,123.72c1.28,0,3.49-1.54,4.09-3.5.11,1.74.24,2.29.53,3.88h-8.43c.77-3.47.77-7.83,0-11.3h3.59c-.75,3.39-.77,7.45-.08,10.92h.29Z"/>
  <path class="cls-6" d="M99.53,124.1c1.03-1.35,1.69-2.86,3.16-6.53l1.93-4.77,2.22-.25c0,.76,1.97,7.39,4.49,11.55h-4.53c.27-.9.11-2.31-.25-3.78h-4.37c-.37,1.78-.04,2.89,1.09,3.78h-3.75ZM102.27,119.93h4.18c-.56-2.02-1.47-4.1-2.27-5.12l-1.05,2.63c-.38.95-.67,1.76-.85,2.49Z"/>
  <path class="cls-6" d="M111.79,112.8h3.59c.58,2.22,4.79,6.4,5.79,7.15.04-.62.05-1.27.04-1.9-.03-1.82-.77-3.86-1.64-5.24h2.6c-.77,3.47-.77,7.83,0,11.3h-2.41c-.36-1.32-4.05-5.76-6.82-9.04-.14,1.17-.2,2.39-.19,3.61.01,1.89.79,3.97,1.64,5.43h-2.6c.77-3.47.77-7.83,0-11.3Z"/>
  <path class="cls-6" d="M123.37,124.1c.77-3.47.77-7.83,0-11.3h5.32c6.88.01,6.79,11.31-.09,11.3h-5.23ZM131.12,118.49c.38-3.24-.48-4.95-1.59-5.21-1.84-.43-3.15,1.98-3.15,4.88v3.55c0,3.78,4.15,1.8,4.74-3.22Z"/>
</svg>