<?xml version="1.0" encoding="UTF-8"?>
<svg id="Layer_1" data-name="Layer 1" xmlns="http://www.w3.org/2000/svg" viewBox="0 0 733.33 733.33">
  <defs>
    <style>
      .cls-1 {
        fill-rule: evenodd;
      }

      .cls-1, .cls-2 {
        fill: #bf905f;
      }
    </style>
  </defs>
  <path class="cls-1" d="M366.67,566.67c110.46,0,200-89.54,200-200s-89.54-200-200-200-200,89.54-200,200,89.54,200,200,200ZM366.67,500c73.64,0,133.33-59.7,133.33-133.33s-59.7-133.33-133.33-133.33-133.33,59.7-133.33,133.33,59.7,133.33,133.33,133.33Z"/>
  <path class="cls-2" d="M566.67,133.33c-18.41,0-33.33,14.92-33.33,33.33s14.92,33.33,33.33,33.33,33.33-14.92,33.33-33.33-14.92-33.33-33.33-33.33Z"/>
  <path class="cls-1" d="M21.8,109.2C0,151.98,0,207.99,0,320v93.33c0,112.01,0,168.02,21.8,210.8,19.17,37.63,49.77,68.23,87.4,87.4,42.78,21.8,98.79,21.8,210.8,21.8h93.33c112.01,0,168.02,0,210.8-21.8,37.63-19.17,68.23-49.77,87.4-87.4,21.8-42.78,21.8-98.79,21.8-210.8v-93.33c0-112.01,0-168.02-21.8-210.8-19.17-37.63-49.77-68.23-87.4-87.4C581.35,0,525.34,0,413.33,0h-93.33c-112.01,0-168.02,0-210.8,21.8-37.63,19.17-68.23,49.77-87.4,87.4ZM413.33,66.67h-93.33c-57.11,0-95.93.05-125.93,2.5-29.23,2.39-44.17,6.72-54.6,12.03-25.09,12.78-45.49,33.18-58.27,58.27-5.31,10.43-9.64,25.37-12.03,54.6-2.45,30.01-2.5,68.83-2.5,125.93v93.33c0,57.11.05,95.92,2.5,125.93,2.39,29.23,6.72,44.18,12.03,54.6,12.78,25.09,33.18,45.48,58.27,58.27,10.43,5.31,25.37,9.64,54.6,12.03,30.01,2.45,68.83,2.5,125.93,2.5h93.33c57.11,0,95.92-.05,125.93-2.5,29.23-2.39,44.18-6.72,54.6-12.03,25.09-12.78,45.48-33.18,58.27-58.27,5.31-10.43,9.64-25.37,12.03-54.6,2.45-30.01,2.5-68.82,2.5-125.93v-93.33c0-57.11-.05-95.93-2.5-125.93-2.39-29.23-6.72-44.17-12.03-54.6-12.78-25.09-33.18-45.49-58.27-58.27-10.43-5.31-25.37-9.64-54.6-12.03-30.01-2.45-68.82-2.5-125.93-2.5Z"/>
</svg>