<?xml version="1.0" encoding="UTF-8"?>
<svg id="Layer_1" xmlns="http://www.w3.org/2000/svg" version="1.1" viewBox="0 0 1920 1080">
  <!-- Generator: Adobe Illustrator 29.3.1, SVG Export Plug-In . SVG Version: 2.1.0 Build 151)  -->
  <defs>
    <style>
      .st0 {
        fill: #fff;
      }
    </style>
  </defs>
  <path class="st0" d="M1917.1,1079.1H-4.2v-564.3c0-21.2,111.6,25.4,116.7,27.2,53.9,18.5,116.7,16.2,172.8,7.8s156.7-34.2,236.6-28.2c81.7,6.5,157.7,42.5,239.4,43,95,0,182.2-48.1,277.1-48.5,87.2-.5,166.6,38.4,251.6,54.6,85.4,16,173.8,7.5,257.6-10.3,77.9-16.6,152.5-51.2,234.4-49.1,25.1.6,50,4,75.2,4.5,16.4.4,58.4,3.1,58.4,3.1,0,0,1.1,39.1,1.1,50.3v453.1c0,13.5,7.5,45.2,0,57.7l.5-.9h0Z"/>
</svg>