<?xml version="1.0" encoding="UTF-8"?>
<svg id="Layer_1" data-name="Layer 1" xmlns="http://www.w3.org/2000/svg" viewBox="0 0 529.77 219.99">
  <defs>
    <style>
      .cls-1 {
        fill: #fff;
      }
    </style>
  </defs>
  <path class="cls-1" d="M429.76,19.97c-27.9,0-53.14,11.43-71.27,29.86-8.15-6.05-18.26-9.63-29.19-9.63-7.9,0-15.37,1.87-21.98,5.19C292,18.29,262.92,0,229.56,0c-47.44,0-86.23,36.98-89.11,83.7-.89-.05-1.79-.07-2.7-.07-19.71,0-37.1,10-47.34,25.21-8.96-5.35-19.43-8.43-30.62-8.43C26.77,100.42,0,127.18,0,160.2c0,29.58,21.48,54.14,49.7,58.93,3.28.56,6.65.85,10.08.85h369.98c1.06,0,2.11-.02,3.16-.05,53.76-1.67,96.85-45.79,96.85-99.96s-44.78-100.01-100.01-100.01ZM306.43,132.71h1.15c-.09.15-.17.3-.26.45-.29-.14-.6-.29-.89-.45Z"/>
  <path class="cls-1" d="M307.58,132.71c-.09.15-.17.3-.26.45-.29-.14-.6-.29-.89-.45h1.15Z"/>
  <path class="cls-1" d="M307.58,132.71c-.09.15-.17.3-.26.45-.29-.14-.6-.29-.89-.45h1.15Z"/>
  <path class="cls-1" d="M49.7,219.13c3.28.56,6.65.85,10.08.85h-10.08v-.85Z"/>
  <path class="cls-1" d="M306.43,132.71h1.15c-.09.15-.17.3-.26.45-.29-.14-.6-.29-.89-.45Z"/>
  <path class="cls-1" d="M432.93,219.94v.05h-3.16c1.06,0,2.11-.02,3.16-.05Z"/>
</svg>