<?xml version="1.0" encoding="UTF-8"?>
<svg id="Layer_1" data-name="Layer 1" xmlns="http://www.w3.org/2000/svg" viewBox="0 0 743.54 738.99">
  <defs>
    <style>
      .cls-1 {
        fill: #bf905f;
      }
    </style>
  </defs>
  <path class="cls-1" d="M743.53,367.21c-.87-70.85-21.97-139.97-60.81-199.23s-93.8-106.19-158.42-135.25C459.68,3.66,388.11-6.34,318,3.91c-70.11,10.25-135.83,40.32-189.42,86.67-53.59,46.35-92.82,107.05-113.07,174.94-20.25,67.9-20.68,140.17-1.23,208.3s57.96,129.29,111,176.27c53.04,46.98,118.4,77.82,188.38,88.9v-263.5h-92.94v-108.28h92.94v-82.26c-2.15-19.13-.08-38.49,6.07-56.73,6.15-18.24,16.23-34.9,29.53-48.82,13.3-13.92,29.48-24.75,47.42-31.72,17.94-6.98,37.19-9.93,56.39-8.65,27.87.38,55.68,2.87,83.19,7.44v92.95h-46.47c-8.01-1.01-16.15-.21-23.81,2.35-7.66,2.56-14.65,6.8-20.45,12.42-5.8,5.62-10.26,12.47-13.05,20.05-2.8,7.58-3.85,15.69-3.1,23.73v70.17h103.17l-16.73,108.28h-85.97v260.25c87.83-13.89,167.77-58.8,225.32-126.59,57.55-67.78,88.9-153.95,88.37-242.87Z"/>
</svg>