<?xml version="1.0" encoding="UTF-8"?>
<svg id="Layer_1" data-name="Layer 1" xmlns="http://www.w3.org/2000/svg" viewBox="0 0 14.56 14.56">
  <defs>
    <style>
      .cls-1 {
        fill: #2b3166;
      }

      .cls-2 {
        fill: #1b1d3f;
      }

      .cls-3 {
        fill: #fff;
        opacity: .15;
      }

      .cls-4 {
        opacity: .35;
      }

      .cls-4, .cls-5 {
        fill: #171a2d;
      }

      .cls-5 {
        opacity: .3;
      }
    </style>
  </defs>
  <path class="cls-1" d="M14.56,7.28c0,3.57-2.56,6.53-5.95,7.16-.16.03-.32.05-.49.07-.22.03-.45.04-.68.05-.06,0-.11,0-.17,0-1.6,0-3.09-.52-4.29-1.4-.03-.02-.05-.04-.08-.06-1.77-1.33-2.91-3.44-2.91-5.82C0,3.26,3.26,0,7.28,0c.97,0,1.89.19,2.74.53.19.08.38.16.57.26.04.02.08.04.11.06.39.21.76.45,1.11.73.08.06.16.13.24.2,1.54,1.33,2.52,3.3,2.52,5.5Z"/>
  <path class="cls-5" d="M14.56,7.28c0,3.57-2.56,6.53-5.95,7.16,1.15-1.27,2.68-3.48,3.02-6.6.36-3.29-.77-5.88-1.62-7.3.19.08.38.16.57.26.04.02.08.04.11.06.39.21.76.45,1.11.73.08.06.16.13.24.2,1.54,1.33,2.52,3.3,2.52,5.5Z"/>
  <path class="cls-2" d="M5.61,7.34l.28.79c.04.12.16.21.29.21h.85c.3,0,.42.39.17.56l-.64.43c-.12.08-.16.23-.12.36l.26.73c.1.28-.22.52-.46.36l-.73-.5c-.1-.07-.24-.07-.34,0l-.73.5c-.25.17-.56-.08-.46-.36l.26-.73c.05-.13,0-.28-.12-.36l-.64-.43c-.25-.17-.13-.56.17-.56h.85c.13,0,.25-.08.29-.21l.28-.79c.1-.28.49-.28.58,0Z"/>
  <path class="cls-3" d="M4.4,1.23c-1.02.52-1.82,1.42-2.2,2.47-.09.24-.15.51-.08.76s.3.47.57.45c.34-.03.52-.4.67-.69.64-1.22,2.09-2,3.5-1.89.33.03.67.1,1,.04s.66-.3.67-.63c.02-.64-1.04-.94-1.56-.99-.88-.08-1.79.08-2.58.48Z"/>
  <path class="cls-4" d="M14.56,7.28c0,3.73-2.81,6.81-6.43,7.23-.22.03-.45.04-.68.05,2.54-1.03,4.52-3.17,5.3-5.84.7-2.42.33-5.01-.94-7.14.08.06.16.13.24.2,1.54,1.33,2.52,3.3,2.52,5.5Z"/>
</svg>