<?xml version="1.0" encoding="UTF-8"?>
<svg id="Layer_1" xmlns="http://www.w3.org/2000/svg" version="1.1" viewBox="0 0 1920 1080">
  <!-- Generator: Adobe Illustrator 29.3.1, SVG Export Plug-In . SVG Version: 2.1.0 Build 151)  -->
  <defs>
    <style>
      .st0 {
        fill: #fff;
      }
    </style>
  </defs>
  <path class="st0" d="M-1.4,1.7h1921.4v1067.8c0,40.2-111.6-48.1-116.7-51.6-53.9-35-116.7-30.6-172.8-14.8s-156.7,64.7-236.6,53.4c-81.7-12.2-157.7-80.5-239.4-81.3-95,0-182.2,91-277.1,91.9-87.2.9-166.6-72.6-251.6-103.3-85.4-30.3-173.8-14.1-257.6,19.5-77.9,31.3-152.5,96.8-234.4,93-25.1-1.1-50-7.5-75.2-8.5-16.4-.7-58.4-5.8-58.4-5.8,0,0-1.1-74.1-1.1-95.3V109.2C-.9,83.6-8.4,23.6-.9,0l-.5,1.7h0Z"/>
</svg>